<svg xmlns="http://www.w3.org/2000/svg" width="16" height="16" fill="currentColor" class="bi bi-suit-club-fill" viewBox="0 0 16 16">
  <circle cx="8" cy="4.5" r="3.5"/>
  <circle cx="4.5" cy="9" r="3.5"/>
  <circle cx="11.5" cy="9" r="3.5"/>
  <path d="M5.602 14.153c.5-.758 1.224-1.98 1.83-3.498.187-.467.949-.467 1.136 0a19.816 19.816 0 0 0 1.83 3.498c.231.35-.02.847-.438.847H6.04c-.419 0-.67-.497-.438-.847z"/>
  <path d="M7 7h2v4H7z"/>
  <path d="M11.5 12.5a3.493 3.493 0 0 1-2.684-1.254 19.92 19.92 0 0 0 1.582 2.907c.231.35-.02.847-.438.847H6.04c-.419 0-.67-.497-.438-.847a19.919 19.919 0 0 0 1.582-2.907 3.5 3.5 0 1 1-2.538-5.743 3.5 3.5 0 1 1 6.708 0A3.5 3.5 0 1 1 11.5 12.5z"/>
</svg>